# xmcd
#
# Track frame offsets:
# 150
# 17161
# 34111
# 54522
# 68768
# 78949
# 93403
# 106402
# 119925
# 136839
# 149414
# 167382
# 182330
# 198436
#
# Disc length: 3173 seconds
#
#
# Revision: 0
# Processed by: cddbd v1.5.1PL0 Copyright (c) Steve Scherf et al.
# Submitted via: FreeRIP 2.90 
#
DISCID=bb0c630e
DTITLE=Trio Nordestino - Nós Tudo Junto
DYEAR=1900
DGENRE=Folk
TTITLE0=Forró 40
TTITLE1=O Trem Pega
TTITLE2=Carro da Polícia
TTITLE3=Vamos Chamegar
TTITLE4=Machuando Sim
TTITLE5=Nós Dois
TTITLE6=O Parque do Juraci
TTITLE7=Chupando Gelo
TTITLE8=Sobradinho
TTITLE9=Tá Chegando Mais
TTITLE10=O Que É Que Você Tá Fazendo Aí, Meu Bem?
TTITLE11=Não Suporto Esperar
TTITLE12=Pout-Porri de Forró - Chinelo de Rosinha/Chap-Chap
TTITLE13=Comendo a Cajubrina
EXTD=
EXTT0=
EXTT1=
EXTT2=
EXTT3=
EXTT4=
EXTT5=
EXTT6=
EXTT7=
EXTT8=
EXTT9=
EXTT10=
EXTT11=
EXTT12=
EXTT13=
PLAYORDER=
